<?xml version="1.0" encoding="UTF-8" standalone="no"?>
<!-- Created with Inkscape (http://www.inkscape.org/) -->
<svg id="Layer_1" xmlns="http://www.w3.org/2000/svg" xml:space="preserve" height="142.13" width="163.51" version="1.0" xmlns:xlink="http://www.w3.org/1999/xlink" viewBox="0 0 185 185"><defs id="defs180">
			<radialGradient id="radialGradient4064" gradientUnits="userSpaceOnUse" cy="39.565" cx="32.515" gradientTransform="translate(8.3624 19.318)" r="105.65"><stop id="stop18" stop-color="#cf0" offset="0"/><stop id="stop20" stop-color="#006b33" offset="1"/></radialGradient><radialGradient id="radialGradient4066" gradientUnits="userSpaceOnUse" cy="92.13" cx="115" gradientTransform="translate(8.3624 19.318)" r="89.029"><stop id="stop29" stop-color="#00a33d" offset="0"/><stop id="stop31" stop-color="#006b33" offset="1"/></radialGradient><radialGradient id="radialGradient4068" gradientUnits="userSpaceOnUse" cy="134.58" cx="48.137" gradientTransform="translate(8.3624 19.318)" r="23.9"><stop id="stop36" stop-color="#7dff00" offset="0"/><stop id="stop38" stop-color="#79fa02" offset=".1428"/><stop id="stop40" stop-color="#6dec07" offset=".31150"/><stop id="stop42" stop-color="#59d40f" offset=".49340"/><stop id="stop44" stop-color="#3cb31a" offset=".6846"/><stop id="stop46" stop-color="#198829" offset="0.881"/><stop id="stop48" stop-color="#006b33" offset="1"/></radialGradient><radialGradient id="radialGradient4070" gradientUnits="userSpaceOnUse" cy="82.13" cx="85" gradientTransform="translate(8.3624 19.318)" r="78.796"><stop id="stop53" stop-color="#7dff00" offset="0"/><stop id="stop55" stop-color="#79fa02" offset=".1428"/><stop id="stop57" stop-color="#6dec07" offset=".31150"/><stop id="stop59" stop-color="#59d40f" offset=".49340"/><stop id="stop61" stop-color="#3cb31a" offset=".6846"/><stop id="stop63" stop-color="#198829" offset="0.881"/><stop id="stop65" stop-color="#006b33" offset="1"/></radialGradient><radialGradient id="radialGradient4072" gradientUnits="userSpaceOnUse" cy="119.68" cx="124.63" gradientTransform="translate(8.3624 19.318)" r="90.866"><stop id="stop74" stop-color="#004533" offset="0"/><stop id="stop76" stop-color="#008237" offset="1"/></radialGradient><radialGradient id="radialGradient4074" gradientUnits="userSpaceOnUse" cy="119.68" cx="124.63" gradientTransform="translate(8.3624 19.318)" r="90.867"><stop id="stop83" stop-color="#004533" offset="0"/><stop id="stop85" stop-color="#008237" offset="1"/></radialGradient><radialGradient id="radialGradient4076" gradientUnits="userSpaceOnUse" cy="119.68" cx="124.63" gradientTransform="translate(8.3624 19.318)" r="90.859"><stop id="stop90" stop-color="#004533" offset="0"/><stop id="stop92" stop-color="#008237" offset="1"/></radialGradient><radialGradient id="radialGradient4078" gradientUnits="userSpaceOnUse" cy="119.67" cx="124.62" gradientTransform="translate(8.3624 19.318)" r="90.854"><stop id="stop97" stop-color="#004533" offset="0"/><stop id="stop99" stop-color="#008237" offset="1"/></radialGradient><radialGradient id="radialGradient4080" gradientUnits="userSpaceOnUse" cy="52.13" cx="75" gradientTransform="translate(8.3624 19.318)" r="82.5"><stop id="stop108" stop-color="#00a33d" offset="0"/><stop id="stop110" stop-color="#006b33" offset="1"/></radialGradient><radialGradient id="radialGradient4082" gradientUnits="userSpaceOnUse" cy="69.205" cx="79.2" gradientTransform="translate(8.3624 19.318)" r="82.5"><stop id="stop117" stop-color="#00a33d" offset="0"/><stop id="stop119" stop-color="#006b33" offset="1"/></radialGradient><radialGradient id="radialGradient4084" gradientUnits="userSpaceOnUse" cy="53.486" cx="105.1" gradientTransform="translate(8.3624 19.318)" r="1.7162"><stop id="stop124" stop-color="#00a33d" offset="0"/><stop id="stop126" stop-color="#006b33" offset="1"/></radialGradient><radialGradient id="radialGradient4086" gradientUnits="userSpaceOnUse" cy="53.081" cx="86.242" gradientTransform="translate(8.3624 19.318)" r="1.7034"><stop id="stop131" stop-color="#00a33d" offset="0"/><stop id="stop133" stop-color="#006b33" offset="1"/></radialGradient><radialGradient id="radialGradient4088" gradientUnits="userSpaceOnUse" cy="30.604" cx="18.626" gradientTransform="translate(8.3624 19.318)" r="179.59"><stop id="stop138" stop-color="#cf0" offset="0"/><stop id="stop140" stop-color="#006b33" offset="1"/></radialGradient><radialGradient id="radialGradient4090" gradientUnits="userSpaceOnUse" cy="30.603" cx="18.627" gradientTransform="translate(8.3624 19.318)" r="179.58"><stop id="stop145" stop-color="#cf0" offset="0"/><stop id="stop147" stop-color="#006b33" offset="1"/></radialGradient><radialGradient id="radialGradient4092" gradientUnits="userSpaceOnUse" cy="30.606" cx="18.633" gradientTransform="translate(8.3624 19.318)" r="179.58"><stop id="stop152" stop-color="#cf0" offset="0"/><stop id="stop154" stop-color="#006b33" offset="1"/></radialGradient><radialGradient id="radialGradient4094" gradientUnits="userSpaceOnUse" cy="129.26" cx="86.111" gradientTransform="translate(8.3624 19.318)" r="0"><stop id="stop159" stop-color="#fff" offset="0"/><stop id="stop161" stop-color="#00a33d" offset="1"/></radialGradient><radialGradient id="radialGradient4096" gradientUnits="userSpaceOnUse" cy="30.607" cx="18.626" gradientTransform="translate(8.3624 19.318)" r="179.58"><stop id="stop166" stop-color="#cf0" offset="0"/><stop id="stop168" stop-color="#006b33" offset="1"/></radialGradient><radialGradient id="radialGradient4098" gradientUnits="userSpaceOnUse" cy="30.604" cx="18.624" gradientTransform="translate(8.3624 19.318)" r="179.59"><stop id="stop173" stop-color="#cf0" offset="0"/><stop id="stop175" stop-color="#006b33" offset="1"/></radialGradient></defs>
<g id="g3176" transform="matrix(1.3016 0 0 1.3016 -24.796 -25.145)"><path id="path11" opacity=".35" d="m64.11 42.06c-3.466 6.674-4.807 14.088-8.783 20.598-2.437 3.989-6.201 13.52-11.984 12.771-2.47-0.32-3.362-3.188-5.729-3.968-5.729-1.887-11.951-0.1-17.529-2.922-2.167-1.095-3.513-2.688-4.552-4.826-0.561-1.157-0.606-2.477-1.605-3.31-4.175 3.675-6.586 8.425-5.138 14.146 0.896 3.544 2.227 5.451 5.138 7.765 2.972 2.363 6.233 3.858 8.477 7.081 1.343 1.933 4.799 5.083 4.644 7.52-0.277 4.285-2.604 8.015-2.355 12.455 0.148 2.67 0.433 5.79 2.202 7.93 2.12 2.57 5.788 2.77 8.145 4.9 2.47 2.22 1.438 5.32 3.434 7.67 3.086 3.65 6.953 3.55 8.077 8.88 0.693 3.3 2.462 4.17 5.2 6.27 4.597 3.5 6.698 8.78 10.385 12.99 6.061 6.91 16.533 1.35 24.22 0.96 4.486-0.23 9.14-0.74 13.63 0.07 5.083 0.92 9.893 1.83 15.073 0.97 6.07-1 12.43-2.24 17.49-5.87 5.09-3.64 9-7.94 13.59-12.13 3.07-2.8 2.7-6.15 5.05-9.15 2.86-3.67 14.29 2.46 13.45-5.53-0.32-3.1-2.74-5.45-1.95-8.81 0.96-4.07 4.75-7.94 6.51-11.78 2.9-6.38 3.59-11.178 1.33-17.892-1.55-4.631-3.82-9.248-5.65-13.726-1.95-4.789-2.38-10.179-5.22-14.597-2.33-3.626-6.41-5.917-8.42-9.606-1.84-3.365-1.69-7.301-1.91-11.016-0.71-12.076-10.97-15.031-21.08-15.663-9.24-0.576-17 0.675-25.97 3.332-2.394 0.708-3.877 0.675-6.268 0.687-3.489 0.017-6.95 1.174-10.347 1.917-5.251 1.149-12.31 1.607-16.49 5.235-2.112 1.829-3.76 4.14-5.065 6.649z"/><path id="path13" fill="#006b33" d="m58.763 36.753c-2.179-3.796-6.79-2.467-10.297-2.415-4.118 0.063-8.211-0.01-12.147 1.396-5.862 2.093-11.28 5.515-15.995 9.551-8.176 7-17.152 22.362-7.941 31.696 2.831 2.87 6.591 5.188 9.225 8.085 0.966 1.06 1.519 2.866 2.32 3.852 1.519 1.881 2.085 1.183 1.029 3.632-1.111 2.58-3.14 3.814-3.352 6.946-0.236 3.524 0.65 8.224 2.001 11.474 1.815 4.37 5.245 4.84 8.688 7.3 2.699 1.93 2.423 4.89 4.343 7.27 1.203 1.5 3.311 2.02 4.552 3.57 1.163 1.44 1.491 3.13 2.241 4.81 1.962 4.41 5.994 6.16 9.154 9.55 2.335 2.5 2.412 4.66 3.803 7.52 1.769 3.63 6.621 5.37 10.473 5.54 6.504 0.3 13.041-2.25 19.574-2.55 6.871-0.31 14.066 1.98 21.016 2.24 10.46 0.38 21.39-4.61 29.38-11.1 3.39-2.76 6.41-5.53 8.35-9.5 1.03-2.12 1.46-4.68 3.03-6.5 2.81-3.27 6.93 0.3 8.75-2.87 1.24 2.02 5.47 2.26 6.89 0.19 1.48-2.15-1.02-4.9-1.98-6.8-4.2-8.23 2.98-13.56 5.55-21.113 1.78-5.255 1.94-10.61 0.98-16.072-1.07-6.139-4.65-9.639-8.11-14.436-2.63-3.657-1.22-6.844-2.64-10.627-1.21-3.222-4.39-3.625-5.25-7.136-0.34-1.375 0.25-1.929-0.86-2.96-0.89-0.824-2.5-0.245-3.4-1.276-1.94-2.208-1.13-8.18-1.91-11.099-3.42-12.819-16.3-16.249-28.08-15.498-6.6 0.42-12.65 2.137-18.965 4.007-2.394 0.708-3.88 0.675-6.27 0.687-3.487 0.017-6.948 1.174-10.345 1.917-3.979 0.87-7.924 1.447-11.42 3.589-2.72 1.665-5.042 3.848-7.769 5.479-1.53 0.92-2.885 1.272-4.618 1.651z"/><circle id="circle15" cy="91.11" cx="96.783" r="58.721" fill="#013314"/><path id="path22" opacity="0.33" fill="url(#radialGradient4064)" d="m20.828 47.413c6.434-6.417 14.005-9.328 22.748-10.39-0.034 0.249-0.212 0.257-0.248 0.504 1.817 1.115 4.41-0.044 6.479 0.393 3.242 0.683 5.23 1.791 8.879 0.921 5.536-1.32 9.379-6.495 15.205-6.827 1.81-6.017 17.494-5.991 22.474-6.73 4.835-0.719 9.595-2.368 14.515-3.017 3.32-0.439 10.47-2.034 13.19 0.424-3.59 1.275-7.7 0.775-11.4 1.859-3.54 1.037-2 1.431-1.58 3.859-5.2 1.98-12.798 0.055-18.313 0.734-6.71 0.827-12.889 2.868-19.148 5.292-7.656 2.964-14.733 7.015-20.561 12.878-4.042 4.069-8.17 8.769-10.954 13.835 1.568-3.576 4.322-7.057 6.777-10.142 1.277-1.603 7.781-7.102 6.754-9.118-1.063 0.235-2.2 0.541-3.163 0.905 0.208-0.867 0.201-1.221 0.887-1.868-3.512-0.531-7.462-1.26-10.822-0.06-3.257 1.166-6.387 3.064-9.186 5.073-5.795 4.158-10.78 9.799-13.313 16.536-1.244 3.304-2.804 8.665 0.054 11.604 1.908 1.964 5.031 1.825 6.15-0.82 0.161 1.955 0.007 3.683 0.637 5.454 0.27 0.754 1.195 1.193 1.335 1.941 0.066 0.355-0.581 1.967-0.601 2.554-0.143 4.195 4.271 6.902 4.189 10.465-6.527 0.333-8.095 10.758-6.198 15.278-1.884-4.49-3.619-9.706-0.611-14.202 0.66-0.982 2.059-1.534 2.635-2.415 3.894-5.98-8.159-13.137-11.688-15.832-4.756-3.633-5.286-10.399-4.282-15.855 0.985-5.331 5.406-9.49 9.16-13.233z"/><circle id="circle24" cy="91.29" cx="98.558" r="57.253" fill="#004533"/><path id="path26" fill="#005933" d="m148.18 91.267c0 28.593-23.18 51.773-51.769 51.773-28.591 0-51.769-23.18-51.769-51.773 0-28.59 23.177-51.768 51.769-51.768 28.589 0.001 51.769 23.178 51.769 51.768z"/><path id="path33" fill="url(#radialGradient4066)" d="m153.39 92.263c0 29.497-23.91 53.407-53.408 53.407-29.495 0-53.412-23.91-53.412-53.407s23.917-53.411 53.412-53.411c29.498 0 53.408 23.914 53.408 53.411z"/><path id="path50" opacity="0.33" fill="url(#radialGradient4068)" d="m52.358 138.47c-0.199 2.43 4.59 4.79 5.53 7.45 0.8 2.26 0.884 3.99 3.081 5.56 2.139 1.52 3.77 0.76 6.025 0.97-4.106-0.88-5.654-3.19-7.004-6.54-0.416-1.03-0.9-2.3-1.785-3.58-0.703-1.02-1.73-2.15-1.264-3.23 1.336 0.29 2.521 1.03 3.872 1.3-4.534-2.56-9.201-3.13-12.567-7.42-1.282 2.76-4.017-1.74-4.491-3.1 0.6 1.72 1.132 3.94 2.462 5.4 1.658 1.83 4.033 2.04 6.141 3.19z"/><path id="path67" opacity="0.33" fill="url(#radialGradient4070)" d="m152.9 68.926c3.32 3.786 4.04 11.502 4.58 16.295 0.73 6.61 0.19 13.398-1.98 19.659-2.52 7.26-5.07 15.07-9.79 21.21-4.42 5.74-9.59 11.7-15.95 15.35-6.91 3.96-14.32 6.82-21.65 9.92 4.22-0.48 8.63-0.15 12.72-1.45 4.89-1.54 10.27-3.45 13.85-7.17 8.03-8.33 14.83-17.79 19.28-28.44 0.11 0.11 0.17 0.36 0.31 0.52 0.39-0.84 0.83-1.67 1.31-2.48 0.82 0.3 1.58 0.82 2.15 1.51 0.3-2.19-1.04-4.21-0.93-6.42 0.16-3.29 1.31-6.77 1.65-10.121 0.8-8.019 0.8-16.489-1.72-24.213-1.99-6.075-6.51-11.813-10.36-16.899-2.48-3.295-5.2-6.385-8.47-9.046-4.98-4.056-9.73-8.847-15.24-12.196 2.02 2.046 5.38 2.975 7.79 4.596 3.29 2.206 6.38 4.761 9.15 7.583 3.46 3.529 8.88 8.035 11.01 12.52 1.87 3.939 1.42 8.77 3.91 12.536"/><path id="path78" fill="url(#radialGradient4072)" d="m116.45 49.011v1.33c-2.35 0.125-4.25 0.455-5.71 0.992s-2.77 1.404-3.93 2.6c-1.6 1.655-2.59 3.942-2.96 6.877-0.24 2.189-0.37 4.707-0.37 7.554v45.636c0 3.43 0.16 6.14 0.5 8.12 0.33 1.98 0.86 3.57 1.6 4.77 1.07 1.65 2.45 2.87 4.14 3.68 1.68 0.81 3.93 1.29 6.73 1.46v1.33h-39.37v-1.33c2.388-0.13 4.312-0.47 5.773-1.03 1.461-0.55 2.749-1.41 3.862-2.56 1.316-1.33 2.2-3 2.656-5.02 0.451-2.02 0.678-5.16 0.678-9.42v-45.635c0-4.251-0.227-7.389-0.678-9.414-0.456-2.022-1.339-3.694-2.656-5.017-1.113-1.196-2.409-2.063-3.892-2.6-1.481-0.538-3.396-0.867-5.743-0.992v-1.33h39.37v-0.001z"/><path id="path87" fill="url(#radialGradient4074)" d="m79.303 62.482c-2.658 3.368-4.731 7.511-6.212 12.43-1.48 4.917-2.222 10.095-2.222 15.541 0 5.036 0.613 9.537 1.84 13.497 1.225 3.97 3.186 7.81 5.876 11.51 2.491-0.7 4.961-1.04 7.417-1.04 3.03 0 5.944 0.59 8.739 1.78 1.195 0.51 2.42 1.17 3.684 1.98 1.258 0.81 3.305 2.24 6.135 4.28l0.46 0.35c2.21-1.19 4.13-2.58 5.75-4.19 1.62-1.59 3.19-3.69 4.73-6.27 3.78-6.23 5.67-13.512 5.67-21.847 0-5.444-0.74-10.633-2.22-15.568-1.48-4.936-3.57-9.086-6.26-12.455-1.07-1.354-2.27-2.615-3.61-3.71-0.98-0.805-2.51-2.15-3.78-2.414 0.1-0.59 0.58-1.181 0.95-1.651 0.51-0.661 1.01-0.229 1.63 0 0.92 0.335 1.83 0.659 2.73 1.04 3.47 1.533 6.71 3.585 9.72 6.153 3 2.571 5.55 5.471 7.62 8.704 3.67 5.719 5.51 11.947 5.51 18.689 0 4.322-0.78 8.5-2.32 12.529-1.55 4.04-3.78 7.74-6.71 11.11-2.42 2.79-4.97 5.07-7.66 6.84s-5.92 3.3-9.69 4.59c2.01 1.34 4.25 2.39 6.76 3.15 2.5 0.75 5 1.13 7.52 1.13 2.14 0 4.17-0.25 6.1-0.75 1.92-0.51 3.45-1.19 4.61-2.06 1.02-0.76 1.83-1.65 2.43-2.68 0.59-1.02 1.12-2.44 1.6-4.24l0.86 0.1c-0.14 2.51-0.56 4.63-1.26 6.37-0.69 1.74-1.81 3.41-3.34 5.03-4.04 4.26-9.89 6.39-17.55 6.39-4.45 0-8.2-0.81-11.23-2.42-2.72-1.49-5.626-4.16-8.72-8.02l-0.305-0.36c-2.992 0-6.098-0.47-9.311-1.4-3.216-0.94-6.235-2.26-9.058-3.96-5.578-3.34-9.906-7.71-12.987-13.12-3.077-5.42-4.616-11.303-4.616-17.668 0-5.684 1.223-10.968 3.672-15.851 2.447-4.885 6.02-9.149 10.711-12.792 3.435-2.688 7.191-4.754 11.271-6.202 0.442-0.158 0.85-0.396 1.284-0.567 0.284-0.113 0.55-0.28 0.846-0.368 0.369-0.113 0.378 0.068 0.602 0.318 0.329 0.37 1.101 0.892 0.769 1.472-0.114 0.198-0.33 0.206-0.532 0.265-0.295 0.087-0.566 0.25-0.835 0.401-1.231 0.678-2.397 1.483-3.49 2.368-1.313 1.063-2.536 2.254-3.578 3.586zm14.038 62.118l-0.356-0.41c-2.385-2.89-4.411-4.91-6.078-6.08-1.669-1.17-3.373-1.75-5.108-1.75-0.649 0-1.364 0.13-2.143 0.39 2.143 2.51 4.246 4.35 6.305 5.53 2.06 1.16 4.52 1.94 7.38 2.32z"/><path id="path94" fill="url(#radialGradient4076)" d="m104.63 57.231c0.31-0.422 0.51-0.963 0.79-1.418 0.19-0.311 0.42-0.597 0.62-0.895 0.43-0.614 0.91-1.09 1.42-1.626"/><path id="path101" fill="url(#radialGradient4078)" d="m85.697 52.965c0.226 0.072 0.372 0.279 0.522 0.439 0.169 0.18 0.363 0.339 0.521 0.526 0.293 0.348 0.619 0.658 0.875 1.038 0.221 0.33 0.409 0.667 0.602 1.003 0.148 0.253 0.292 0.544 0.461 0.778"/><path id="path112" fill="url(#radialGradient4080)" d="m115.5 47.235v1.33c-2.34 0.125-4.25 0.455-5.71 0.993-1.46 0.536-2.77 1.404-3.92 2.599-1.61 1.655-2.59 3.943-2.96 6.877-0.25 2.189-0.37 4.707-0.37 7.553v45.643c0 3.43 0.16 6.13 0.49 8.11s0.87 3.57 1.61 4.77c1.07 1.65 2.45 2.88 4.13 3.69 1.69 0.8 3.94 1.28 6.73 1.45v1.33h-39.363v-1.33c2.387-0.12 4.313-0.46 5.773-1.02 1.461-0.56 2.75-1.42 3.864-2.57 1.315-1.32 2.198-2.99 2.652-5.01 0.455-2.03 0.681-5.17 0.681-9.42v-45.643c0-4.252-0.226-7.388-0.681-9.412-0.454-2.023-1.337-3.695-2.652-5.019-1.114-1.195-2.412-2.063-3.895-2.599-1.482-0.538-3.396-0.867-5.742-0.993v-1.33h39.363v0.001z"/><path id="path121" fill="url(#radialGradient4082)" d="m78.359 60.706c-2.659 3.368-4.731 7.512-6.213 12.431-1.479 4.916-2.221 10.096-2.221 15.54 0 5.036 0.613 9.538 1.84 13.503 1.227 3.96 3.186 7.8 5.877 11.51 2.489-0.7 4.961-1.05 7.416-1.05 3.03 0 5.944 0.59 8.739 1.78 1.196 0.51 2.422 1.17 3.684 1.98 1.26 0.82 3.299 2.24 6.129 4.28l0.46 0.36c2.22-1.2 4.14-2.59 5.75-4.19 1.62-1.6 3.2-3.69 4.73-6.28 3.79-6.22 5.68-13.508 5.68-21.843 0-5.443-0.74-10.633-2.23-15.568-1.48-4.934-3.57-9.086-6.26-12.455-1.07-1.353-2.27-2.614-3.61-3.708-0.98-0.805-2.5-2.151-3.77-2.416 0.1-0.59 0.58-1.181 0.94-1.65 0.51-0.661 1.01-0.231 1.64 0 0.91 0.335 1.83 0.658 2.72 1.04 3.47 1.532 6.71 3.583 9.72 6.151 3.01 2.572 5.55 5.472 7.62 8.705 3.67 5.719 5.51 11.947 5.51 18.689 0 4.321-0.77 8.5-2.32 12.535-1.55 4.03-3.78 7.73-6.71 11.1-2.42 2.79-4.97 5.07-7.65 6.85-2.69 1.76-5.92 3.3-9.7 4.59 2.01 1.33 4.26 2.38 6.76 3.14s5.01 1.14 7.52 1.14c2.14 0 4.18-0.26 6.1-0.76 1.92-0.51 3.46-1.19 4.61-2.06 1.02-0.76 1.84-1.65 2.43-2.68 0.59-1.02 1.13-2.43 1.6-4.24l0.86 0.11c-0.14 2.51-0.56 4.63-1.25 6.36-0.7 1.74-1.81 3.42-3.34 5.03-4.05 4.27-9.9 6.4-17.55 6.4-4.46 0-8.2-0.81-11.23-2.43-2.721-1.48-5.63-4.15-8.725-8.02l-0.308-0.36c-2.993 0-6.097-0.47-9.308-1.4-3.215-0.94-6.236-2.26-9.059-3.96-5.578-3.33-9.905-7.71-12.986-13.12-3.077-5.41-4.617-11.301-4.617-17.666 0-5.684 1.224-10.968 3.672-15.851 2.448-4.885 6.02-9.149 10.711-12.792 3.436-2.687 7.192-4.753 11.273-6.202 0.439-0.158 0.846-0.395 1.283-0.566 0.284-0.113 0.547-0.281 0.847-0.37 0.365-0.112 0.38 0.07 0.602 0.32 0.328 0.369 1.1 0.893 0.767 1.472-0.115 0.198-0.332 0.207-0.532 0.265-0.296 0.087-0.565 0.249-0.833 0.401-1.231 0.678-2.397 1.482-3.492 2.368-1.311 1.064-2.534 2.255-3.576 3.587zm14.037 62.114l-0.356-0.41c-2.384-2.88-4.411-4.91-6.08-6.07-1.67-1.17-3.372-1.76-5.105-1.76-0.649 0-1.365 0.14-2.144 0.39 2.144 2.52 4.246 4.36 6.305 5.53 2.06 1.17 4.518 1.95 7.38 2.32z"/><path id="path128" fill="url(#radialGradient4084)" d="m103.68 55.456c0.32-0.423 0.52-0.964 0.8-1.418 0.19-0.311 0.41-0.597 0.62-0.895 0.43-0.614 0.91-1.09 1.42-1.626"/><path id="path135" fill="url(#radialGradient4086)" d="m84.75 51.189c0.226 0.072 0.374 0.28 0.525 0.439 0.17 0.181 0.361 0.34 0.521 0.526 0.293 0.347 0.618 0.659 0.875 1.038 0.223 0.33 0.41 0.667 0.602 1.004 0.148 0.25 0.292 0.543 0.461 0.776"/><path id="path142" opacity="0.33" fill="url(#radialGradient4088)" d="m85.102 53.319s-26.642 8.137-25.944 35.409c0.273 10.685 3.606 15.302 3.606 15.302s-7.616-32.598 22.338-50.711z"/><path id="path149" opacity="0.33" fill="url(#radialGradient4090)" d="m111.91 48.319l0.69-0.698h-35.52s12.364 1.094 12.364 8.815l0.605 57.564s-4.893-1.46-8.177 0c-3.286 1.46 2.084-1.72 8.168 1.46l9.944 5.26s-4.316-4.27-7.126-5.49c0 0-1.856-57.829-0.742-58.943 0.001 0-3.769-7.968 19.794-7.968z"/><path id="path156" opacity="0.33" fill="url(#radialGradient4092)" d="m89.788 120.62s-0.988 8.51-9.871 9.87v1.09h4.775l6.068-9.94-0.972-1.02z"/><path id="path170" opacity="0.33" fill="url(#radialGradient4096)" d="m111.44 126.66s21.46 4.82 23.49-8.73c0 0 1.28 11.64-16.39 11.25 0 0 2.73-0.23-7.1-2.52z"/><path id="path177" opacity="0.33" fill="url(#radialGradient4098)" d="m104.64 120.73s22.08-10.7 15.59-45.346l3.66 10.596c0-0.001 4.01 24.79-19.25 34.75z"/></g></svg>
